<svg width="20" height="20" viewBox="0 0 20 20" fill="none" xmlns="http://www.w3.org/2000/svg">
<path d="M0.405807 19.5942C0.277151 19.4655 0.175094 19.3128 0.105466 19.1447C0.0358374 18.9766 0 18.7964 0 18.6145C0 18.4326 0.0358374 18.2524 0.105466 18.0843C0.175094 17.9162 0.277151 17.7635 0.405807 17.6348L3.34491 14.6956L1.38551 12.7362C1.12567 12.4764 0.979702 12.124 0.979702 11.7565C0.979702 11.389 1.12567 11.0366 1.38551 10.7768C1.64534 10.517 1.99775 10.371 2.36521 10.371C2.73267 10.371 3.08507 10.517 3.34491 10.7768L9.22321 16.655C9.48305 16.9148 9.62904 17.2672 9.62905 17.6347C9.62906 18.0022 9.48309 18.3546 9.22326 18.6145C8.96342 18.8743 8.61101 19.0203 8.24354 19.0203C7.87607 19.0203 7.52365 18.8743 7.26381 18.6145L5.30441 16.655L2.36521 19.5942C2.23655 19.7229 2.08381 19.8249 1.91572 19.8945C1.74762 19.9642 1.56745 20 1.38551 20C1.20356 20 1.02339 19.9642 0.855297 19.8945C0.6872 19.8249 0.534463 19.7229 0.405807 19.5942ZM19 0H16.4954C16.2302 3.59695e-06 15.9758 0.105363 15.7883 0.2929L5.73881 10.3424L9.65751 14.2614L19.7075 4.2114C19.8948 4.02387 20 3.76965 20 3.5046V1C20 0.734784 19.8947 0.48043 19.7071 0.292893C19.5196 0.105357 19.2652 0 19 0ZM16.6551 14.6956L18.6145 12.7362C18.8743 12.4764 19.0203 12.124 19.0203 11.7565C19.0203 11.389 18.8743 11.0366 18.6145 10.7768C18.3547 10.517 18.0023 10.371 17.6348 10.371C17.2673 10.371 16.9149 10.517 16.6551 10.7768L10.7768 16.655C10.6481 16.7837 10.5461 16.9364 10.4764 17.1045C10.4068 17.2726 10.371 17.4528 10.371 17.6347C10.371 18.0022 10.5169 18.3546 10.7768 18.6145C11.0366 18.8743 11.389 19.0203 11.7565 19.0203C12.1239 19.0203 12.4764 18.8743 12.7362 18.6145L14.6956 16.655L17.6348 19.5942C17.8946 19.854 18.247 20 18.6145 20C18.982 20 19.3344 19.854 19.5942 19.5942C19.854 19.3344 20 18.982 20 18.6145C20 18.247 19.854 17.8946 19.5942 17.6348L16.6551 14.6956ZM3.50461 0H1.00001C0.734791 0 0.480437 0.105357 0.2929 0.292893C0.105364 0.48043 7.15256e-06 0.734784 7.15256e-06 1V3.5046C-4.19951e-06 3.63594 0.0258568 3.76599 0.076113 3.88733C0.126369 4.00868 0.200036 4.11893 0.292907 4.2118L4.66751 8.5863L8.58621 4.6673L4.21171 0.2929C4.02417 0.105363 3.76982 3.59695e-06 3.50461 0Z" fill="#676778"/>
</svg>
