<svg width="20" height="19" viewBox="0 0 20 19" fill="none" xmlns="http://www.w3.org/2000/svg">
<path d="M7.27605 0.991217C8.91157 -0.153648 11.0884 -0.153648 12.7239 0.991217L17.7239 4.49122C18.9937 5.38008 19.75 6.83258 19.75 8.38257V14C19.75 16.6233 17.6234 18.7499 15 18.7499H13C12.5858 18.7499 12.25 18.4142 12.25 17.9999V13.9999C12.25 13.3096 11.6904 12.7499 11 12.7499H9C8.30964 12.7499 7.75 13.3096 7.75 13.9999V17.9999C7.75 18.4142 7.41421 18.7499 7 18.7499H5C2.37665 18.7499 0.25 16.6233 0.25 13.9999V8.38257C0.25 6.83258 1.00625 5.38008 2.27605 4.49122L7.27605 0.991217Z" fill="#676778"/>
</svg>
