<svg width="22" height="26" viewBox="0 0 22 26" fill="none" xmlns="http://www.w3.org/2000/svg">
<path d="M11.2917 8.04169H11C10.8627 8.0361 10.7285 7.99865 10.6081 7.93229C10.4877 7.86593 10.3844 7.77248 10.3063 7.65932C10.2282 7.54617 10.1775 7.4164 10.1582 7.28029C10.1389 7.14417 10.1515 7.00543 10.195 6.87503C10.6034 5.84836 10.9767 4.79836 11.28 3.77169C11.5367 2.97836 12.54 0.49336 15.06 0.49336C16.0422 0.461889 16.9967 0.821333 17.7141 1.49281C18.4315 2.1643 18.8532 3.09296 18.8867 4.07503C18.8867 6.32669 16.3317 7.24836 15.3867 7.57503C14.0507 7.92366 12.6719 8.08078 11.2917 8.04169ZM15.0484 2.20836C13.7067 2.20836 13.1 3.76003 12.9484 4.23836C12.7384 4.91503 12.5167 5.59169 12.2717 6.26836C13.1081 6.26305 13.94 6.14533 14.745 5.91836C15.41 5.68503 17.0784 5.05503 17.0784 4.04003C17.0424 3.53151 16.8109 3.05667 16.4324 2.71516C16.0539 2.37365 15.5579 2.19201 15.0484 2.20836Z" fill="#B2B2FF"/>
<path d="M10.6734 8.04164C9.32322 8.06542 7.97632 7.90049 6.67175 7.55164C3.76675 6.60664 3.17175 5.12497 3.17175 4.05164C3.17663 3.59829 3.27321 3.15062 3.45566 2.73559C3.63812 2.32055 3.90268 1.94673 4.23342 1.63664C4.96888 0.896762 5.96689 0.477433 7.01009 0.469971C8.97009 0.469971 9.96175 2.30164 10.6968 3.6083C11.1744 4.67946 11.5646 5.78752 11.8634 6.92164C11.8996 7.05033 11.9057 7.1856 11.8815 7.31706C11.8572 7.44851 11.8031 7.57266 11.7234 7.67997C11.6461 7.78834 11.5449 7.87736 11.4275 7.9401C11.3101 8.00284 11.1798 8.03759 11.0468 8.04164H10.6734ZM6.88175 2.2083C6.32773 2.23217 5.80472 2.47066 5.42342 2.8733C5.25712 3.01995 5.12266 3.19915 5.02835 3.39981C4.93403 3.60048 4.88187 3.81835 4.87509 4.03997C4.87509 4.75164 5.73842 5.43997 7.20842 5.9183C8.06618 6.14002 8.94754 6.25753 9.83342 6.2683C9.64472 5.647 9.41476 5.03898 9.14509 4.4483L9.83342 4.0283L9.07509 4.4483C8.39842 3.1533 7.81509 2.23164 6.91675 2.2083H6.88175Z" fill="#B2B2FF"/>
<path d="M21.7917 10.9583V9.49996C21.7917 8.64906 21.4537 7.833 20.852 7.23132C20.2503 6.62965 19.4343 6.29163 18.5834 6.29163H3.41671C2.5658 6.29163 1.74975 6.62965 1.14807 7.23132C0.546394 7.833 0.208374 8.64906 0.208374 9.49996V10.9583H21.7917Z" fill="#B2B2FF"/>
<path d="M11.875 12.7083V25.5416H18.5833C19.4342 25.5416 20.2503 25.2036 20.852 24.6019C21.4536 24.0002 21.7917 23.1842 21.7917 22.3333V12.7083H11.875Z" fill="#B2B2FF"/>
<path d="M10.125 12.7083H0.208374V22.3333C0.208374 23.1842 0.546394 24.0002 1.14807 24.6019C1.74975 25.2036 2.5658 25.5416 3.41671 25.5416H10.125V12.7083Z" fill="#B2B2FF"/>
</svg>
