<svg width="22" height="18" viewBox="0 0 22 18" fill="none" xmlns="http://www.w3.org/2000/svg">
<path d="M16 0.25C14.2051 0.25 12.75 1.70507 12.75 3.5C12.75 5.29493 14.2051 6.75 16 6.75C17.7949 6.75 19.25 5.29493 19.25 3.5C19.25 1.70507 17.7949 0.25 16 0.25Z" fill="#676778"/>
<path d="M7 1.25C4.92893 1.25 3.25 2.92893 3.25 5C3.25 7.07107 4.92893 8.75 7 8.75C9.07107 8.75 10.75 7.07107 10.75 5C10.75 2.92893 9.07107 1.25 7 1.25Z" fill="#676778"/>
<path d="M16 8.25C15.2449 8.25 14.4972 8.39873 13.7996 8.68769C13.1019 8.97666 12.4681 9.4002 11.9341 9.93414C11.8463 10.022 11.7614 10.1125 11.6797 10.2056C12.0917 10.4895 12.4781 10.8109 12.8336 11.1664C13.5997 11.9325 14.2074 12.8419 14.622 13.8429C14.7449 14.1395 14.8501 14.4424 14.9373 14.75H21C21.4142 14.75 21.75 14.4142 21.75 14C21.75 13.2449 21.6013 12.4972 21.3123 11.7996C21.0233 11.1019 20.5998 10.4681 20.0659 9.93414C19.5319 9.4002 18.8981 8.97666 18.2004 8.68769C17.5028 8.39873 16.7551 8.25 16 8.25Z" fill="#676778"/>
<path d="M4.41689 10.7638C5.23583 10.4246 6.11358 10.25 7 10.25C7.88642 10.25 8.76417 10.4246 9.58311 10.7638C10.4021 11.103 11.1462 11.6002 11.773 12.227C12.3998 12.8538 12.897 13.5979 13.2362 14.4169C13.5754 15.2358 13.75 16.1136 13.75 17C13.75 17.4142 13.4142 17.75 13 17.75H1C0.585787 17.75 0.25 17.4142 0.25 17C0.25 16.1136 0.424595 15.2358 0.763813 14.4169C1.10303 13.5979 1.60023 12.8538 2.22703 12.227C2.85382 11.6002 3.59794 11.103 4.41689 10.7638Z" fill="#676778"/>
</svg>
