<svg width="20" height="20" viewBox="0 0 20 20" fill="none" xmlns="http://www.w3.org/2000/svg">
<path d="M5 0.06C5.2725 0.0208333 5.55083 0 5.83333 0H14.1667C14.4492 0 14.7275 0.0208333 15 0.06V7.5H12.5C12.5 6.12167 11.3783 5 10 5C8.62167 5 7.5 6.12167 7.5 7.5H5V0.06ZM16.6667 7.5H20V5.83333C20 3.51083 18.6358 1.50167 16.6667 0.563333V7.5ZM12.5 9.16667V10C12.5 11.3783 11.3783 12.5 10 12.5C8.62167 12.5 7.5 11.3783 7.5 10V9.16667H0V15.8333C0 17.845 1.43417 19.5292 3.33333 19.9158V11.6667C3.33333 11.2067 3.70583 10.8333 4.16667 10.8333C4.6275 10.8333 5 11.2067 5 11.6667V20H15V11.6667C15 11.2067 15.3725 10.8333 15.8333 10.8333C16.2942 10.8333 16.6667 11.2067 16.6667 11.6667V19.9158C18.5658 19.5283 20 17.845 20 15.8333V9.16667H12.5ZM3.33333 7.5V0.563333C1.36417 1.50167 0 3.51083 0 5.83333V7.5H3.33333ZM10 10.8333C10.46 10.8333 10.8333 10.4592 10.8333 10V7.5C10.8333 7.04083 10.46 6.66667 10 6.66667C9.54 6.66667 9.16667 7.04083 9.16667 7.5V10C9.16667 10.4592 9.54 10.8333 10 10.8333Z" fill="#676778"/>
</svg>
