<svg width="22" height="18" viewBox="0 0 22 18" fill="none" xmlns="http://www.w3.org/2000/svg">
<path fill-rule="evenodd" clip-rule="evenodd" d="M5 0.25C2.37665 0.25 0.25 2.37665 0.25 5V13C0.25 15.6234 2.37665 17.75 5 17.75H17C19.6234 17.75 21.75 15.6234 21.75 13V5C21.75 2.37665 19.6234 0.25 17 0.25H5ZM3.46967 3.46967C3.76256 3.17678 4.23744 3.17678 4.53033 3.46967L11 9.93934L17.4697 3.46967C17.7626 3.17678 18.2374 3.17678 18.5303 3.46967C18.8232 3.76256 18.8232 4.23744 18.5303 4.53033L13.8107 9.25L18.0303 13.4697C18.3232 13.7626 18.3232 14.2374 18.0303 14.5303C17.7374 14.8232 17.2626 14.8232 16.9697 14.5303L12.75 10.3107L11.8839 11.1768C11.3957 11.6649 10.6043 11.6649 10.1161 11.1768L9.25 10.3107L5.03033 14.5303C4.73744 14.8232 4.26256 14.8232 3.96967 14.5303C3.67678 14.2374 3.67678 13.7626 3.96967 13.4697L8.18934 9.25L3.46967 4.53033C3.17678 4.23744 3.17678 3.76256 3.46967 3.46967Z" fill="#4B4B58"/>
</svg>
