<svg width="20" height="20" viewBox="0 0 20 20" fill="none" xmlns="http://www.w3.org/2000/svg">
<path fill-rule="evenodd" clip-rule="evenodd" d="M10 0.25C15.3848 0.25 19.75 4.61522 19.75 10C19.75 15.3848 15.3848 19.75 10 19.75C8.2727 19.75 6.64844 19.3002 5.24009 18.511L1.21552 19.7184C0.934842 19.8026 0.630826 19.7156 0.437155 19.4957C0.243485 19.2758 0.195639 18.9632 0.314654 18.6954L1.82021 15.3079C0.827075 13.7803 0.250012 11.9566 0.250012 10C0.250012 4.61522 4.61524 0.25 10 0.25ZM10 6.75C9.30966 6.75 8.75001 7.30964 8.75001 8C8.75001 8.41421 8.41422 8.75 8.00001 8.75C7.5858 8.75 7.25001 8.41421 7.25001 8C7.25001 6.48122 8.48123 5.25 10 5.25H10.3333C11.668 5.25 12.75 6.33198 12.75 7.66667C12.75 8.42733 12.3919 9.1436 11.7833 9.6L11.25 10C10.9353 10.2361 10.75 10.6066 10.75 11C10.75 11.4142 10.4142 11.75 10 11.75C9.5858 11.75 9.25001 11.4142 9.25001 11C9.25001 10.1344 9.65755 9.31935 10.35 8.8L10.8833 8.4C11.1142 8.22688 11.25 7.95519 11.25 7.66667C11.25 7.16041 10.8396 6.75 10.3333 6.75H10ZM10 12.5C9.44773 12.5 9.00001 12.9477 9.00001 13.5C9.00001 14.0523 9.44773 14.5 10 14.5C10.5523 14.5 11 14.0523 11 13.5C11 12.9477 10.5523 12.5 10 12.5Z" fill="#4B4B58"/>
</svg>
