<svg width="20" height="20" viewBox="0 0 20 20" fill="none" xmlns="http://www.w3.org/2000/svg">
<path d="M19.75 2.66648C19.75 1.34537 18.3422 0.500662 17.1765 1.12236L13.7484 2.95066C13.7495 2.96697 13.75 2.98342 13.75 3V14C13.75 14.0165 13.7495 14.0328 13.7484 14.049L17.1765 15.8773C18.3422 16.499 19.75 15.6543 19.75 14.3331V2.66648Z" fill="#4B4B58"/>
<path d="M12.25 13.7498V3.24981H5.5C2.6005 3.24981 0.25 5.60032 0.25 8.49981C0.25 11.3993 2.6005 13.7498 5.5 13.7498H12.25Z" fill="#4B4B58"/>
<path d="M10.2457 16.7649L9.74065 15.2499H5.5C5.31558 15.2499 5.13289 15.2425 4.95221 15.228L5.94263 18.1993C6.25132 19.1254 7.11797 19.75 8.09414 19.75C9.64211 19.75 10.7352 18.2335 10.2457 16.7649Z" fill="#4B4B58"/>
</svg>
