<svg width="18" height="20" viewBox="0 0 18 20" fill="none" xmlns="http://www.w3.org/2000/svg">
<path fill-rule="evenodd" clip-rule="evenodd" d="M0.25 4C0.25 1.92893 1.92893 0.25 4 0.25H14C16.0711 0.25 17.75 1.92893 17.75 4V16C17.75 18.0711 16.0711 19.75 14 19.75H4C1.92893 19.75 0.25 18.0711 0.25 16V4ZM5 8.75C4.58579 8.75 4.25 8.41421 4.25 8C4.25 7.58579 4.58579 7.25 5 7.25H9C9.41421 7.25 9.75 7.58579 9.75 8C9.75 8.41421 9.41421 8.75 9 8.75H5ZM4.25 5C4.25 5.41421 4.58579 5.75 5 5.75H13C13.4142 5.75 13.75 5.41421 13.75 5C13.75 4.58579 13.4142 4.25 13 4.25H5C4.58579 4.25 4.25 4.58579 4.25 5ZM5 11.75C4.58579 11.75 4.25 11.4142 4.25 11C4.25 10.5858 4.58579 10.25 5 10.25H11C11.4142 10.25 11.75 10.5858 11.75 11C11.75 11.4142 11.4142 11.75 11 11.75H5ZM9.25 15C9.25 14.5858 9.58579 14.25 10 14.25H13C13.4142 14.25 13.75 14.5858 13.75 15C13.75 15.4142 13.4142 15.75 13 15.75H10C9.58579 15.75 9.25 15.4142 9.25 15ZM7.50112 14.7097C7.8093 14.4329 7.83477 13.9587 7.55801 13.6505C7.28125 13.3424 6.80706 13.3169 6.49888 13.5937L5.6639 14.3435L5.50126 14.1974C5.19314 13.9205 4.71895 13.9459 4.44211 14.254C4.16527 14.5621 4.19063 15.0363 4.49874 15.3132L5.16252 15.9096C5.44756 16.1657 5.87981 16.1657 6.1649 15.9097L7.50112 14.7097Z" fill="#676778"/>
</svg>
